<svg width="286" height="82" viewBox="0 0 286 82" fill="none" xmlns="http://www.w3.org/2000/svg">
<path d="M116.818 25.3125C116.619 24.6212 116.34 24.0104 115.98 23.4801C115.62 22.9403 115.18 22.4858 114.659 22.1165C114.148 21.7377 113.561 21.4489 112.898 21.25C112.244 21.0511 111.52 20.9517 110.724 20.9517C109.238 20.9517 107.931 21.321 106.804 22.0597C105.687 22.7983 104.815 23.8731 104.19 25.2841C103.565 26.6856 103.253 28.3996 103.253 30.4261C103.253 32.4527 103.561 34.1761 104.176 35.5966C104.792 37.017 105.663 38.1013 106.79 38.8494C107.917 39.5881 109.247 39.9574 110.781 39.9574C112.173 39.9574 113.362 39.7112 114.347 39.2188C115.341 38.7169 116.098 38.0114 116.619 37.1023C117.15 36.1932 117.415 35.1184 117.415 33.8778L118.665 34.0625H111.165V29.4318H123.338V33.0966C123.338 35.6534 122.798 37.8504 121.719 39.6875C120.639 41.5152 119.152 42.9261 117.259 43.9205C115.365 44.9053 113.196 45.3977 110.753 45.3977C108.026 45.3977 105.63 44.7964 103.565 43.5938C101.501 42.3816 99.8911 40.6629 98.7358 38.4375C97.59 36.2027 97.017 33.5511 97.017 30.483C97.017 28.125 97.358 26.0227 98.0398 24.1761C98.7311 22.3201 99.697 20.7481 100.938 19.4602C102.178 18.1723 103.622 17.1922 105.27 16.5199C106.918 15.8475 108.703 15.5114 110.625 15.5114C112.273 15.5114 113.807 15.7528 115.227 16.2358C116.648 16.7093 117.907 17.3816 119.006 18.2528C120.114 19.1241 121.018 20.161 121.719 21.3636C122.42 22.5568 122.869 23.8731 123.068 25.3125H116.818ZM127.844 45V23.1818H133.711V26.9886H133.938C134.336 25.6345 135.004 24.6117 135.941 23.9205C136.879 23.2197 137.958 22.8693 139.18 22.8693C139.483 22.8693 139.809 22.8883 140.16 22.9261C140.51 22.964 140.818 23.0161 141.083 23.0824V28.4517C140.799 28.3665 140.406 28.2907 139.904 28.2244C139.402 28.1581 138.943 28.125 138.526 28.125C137.636 28.125 136.841 28.3191 136.14 28.7074C135.449 29.0862 134.899 29.6165 134.492 30.2983C134.094 30.9801 133.896 31.7661 133.896 32.6562V45H127.844ZM153.139 45.4261C150.895 45.4261 148.963 44.9716 147.344 44.0625C145.734 43.1439 144.493 41.8466 143.622 40.1705C142.751 38.4848 142.315 36.4915 142.315 34.1903C142.315 31.946 142.751 29.9763 143.622 28.2812C144.493 26.5862 145.72 25.2652 147.301 24.3182C148.892 23.3712 150.758 22.8977 152.898 22.8977C154.337 22.8977 155.677 23.1297 156.918 23.5938C158.168 24.0483 159.257 24.7348 160.185 25.6534C161.122 26.572 161.851 27.7273 162.372 29.1193C162.893 30.5019 163.153 32.1212 163.153 33.9773V35.6392H144.73V31.8892H157.457C157.457 31.018 157.268 30.2462 156.889 29.5739C156.51 28.9015 155.985 28.3759 155.312 27.9972C154.65 27.6089 153.878 27.4148 152.997 27.4148C152.079 27.4148 151.264 27.6278 150.554 28.054C149.853 28.4706 149.304 29.0341 148.906 29.7443C148.509 30.4451 148.305 31.2263 148.295 32.0881V35.6534C148.295 36.733 148.494 37.6657 148.892 38.4517C149.299 39.2377 149.872 39.8438 150.611 40.2699C151.349 40.696 152.225 40.9091 153.239 40.9091C153.911 40.9091 154.527 40.8144 155.085 40.625C155.644 40.4356 156.122 40.1515 156.52 39.7727C156.918 39.3939 157.221 38.9299 157.429 38.3807L163.026 38.75C162.741 40.0947 162.159 41.2689 161.278 42.2727C160.407 43.267 159.28 44.0436 157.898 44.6023C156.525 45.1515 154.938 45.4261 153.139 45.4261ZM177.045 45.4261C174.801 45.4261 172.869 44.9716 171.25 44.0625C169.64 43.1439 168.4 41.8466 167.528 40.1705C166.657 38.4848 166.222 36.4915 166.222 34.1903C166.222 31.946 166.657 29.9763 167.528 28.2812C168.4 26.5862 169.626 25.2652 171.207 24.3182C172.798 23.3712 174.664 22.8977 176.804 22.8977C178.243 22.8977 179.583 23.1297 180.824 23.5938C182.074 24.0483 183.163 24.7348 184.091 25.6534C185.028 26.572 185.758 27.7273 186.278 29.1193C186.799 30.5019 187.06 32.1212 187.06 33.9773V35.6392H168.636V31.8892H181.364C181.364 31.018 181.174 30.2462 180.795 29.5739C180.417 28.9015 179.891 28.3759 179.219 27.9972C178.556 27.6089 177.784 27.4148 176.903 27.4148C175.985 27.4148 175.17 27.6278 174.46 28.054C173.759 28.4706 173.21 29.0341 172.812 29.7443C172.415 30.4451 172.211 31.2263 172.202 32.0881V35.6534C172.202 36.733 172.401 37.6657 172.798 38.4517C173.205 39.2377 173.778 39.8438 174.517 40.2699C175.256 40.696 176.132 40.9091 177.145 40.9091C177.817 40.9091 178.433 40.8144 178.991 40.625C179.55 40.4356 180.028 40.1515 180.426 39.7727C180.824 39.3939 181.127 38.9299 181.335 38.3807L186.932 38.75C186.648 40.0947 186.065 41.2689 185.185 42.2727C184.313 43.267 183.187 44.0436 181.804 44.6023C180.431 45.1515 178.845 45.4261 177.045 45.4261ZM197.06 32.3864V45H191.009V23.1818H196.776V27.0312H197.031C197.514 25.7623 198.324 24.7585 199.46 24.0199C200.597 23.2718 201.974 22.8977 203.594 22.8977C205.109 22.8977 206.43 23.2292 207.557 23.892C208.684 24.5549 209.56 25.5019 210.185 26.733C210.81 27.9545 211.122 29.4129 211.122 31.108V45H205.071V32.1875C205.08 30.8523 204.74 29.8106 204.048 29.0625C203.357 28.3049 202.405 27.9261 201.193 27.9261C200.379 27.9261 199.659 28.1013 199.034 28.4517C198.419 28.8021 197.936 29.3134 197.585 29.9858C197.244 30.6487 197.069 31.4489 197.06 32.3864ZM216.005 45V15.9091H222.056V26.8466H222.241C222.506 26.2595 222.889 25.6629 223.391 25.0568C223.903 24.4413 224.566 23.9299 225.38 23.5227C226.204 23.1061 227.227 22.8977 228.448 22.8977C230.039 22.8977 231.507 23.3144 232.852 24.1477C234.196 24.9716 235.271 26.2169 236.076 27.8835C236.881 29.5407 237.283 31.6193 237.283 34.1193C237.283 36.553 236.89 38.608 236.104 40.2841C235.328 41.9508 234.267 43.215 232.923 44.0767C231.587 44.929 230.091 45.3551 228.434 45.3551C227.26 45.3551 226.261 45.161 225.437 44.7727C224.622 44.3845 223.955 43.8968 223.434 43.3097C222.913 42.7131 222.515 42.1117 222.241 41.5057H221.971V45H216.005ZM221.928 34.0909C221.928 35.3883 222.108 36.5199 222.468 37.4858C222.828 38.4517 223.349 39.2045 224.031 39.7443C224.712 40.2746 225.541 40.5398 226.516 40.5398C227.501 40.5398 228.335 40.2699 229.016 39.7301C229.698 39.1809 230.214 38.4233 230.565 37.4574C230.924 36.482 231.104 35.3598 231.104 34.0909C231.104 32.8314 230.929 31.7235 230.579 30.767C230.228 29.8106 229.712 29.0625 229.031 28.5227C228.349 27.983 227.511 27.7131 226.516 27.7131C225.531 27.7131 224.698 27.9735 224.016 28.4943C223.344 29.0152 222.828 29.7538 222.468 30.7102C222.108 31.6667 221.928 32.7936 221.928 34.0909ZM251.179 45.4261C248.973 45.4261 247.064 44.9574 245.455 44.0199C243.854 43.0729 242.618 41.7566 241.747 40.071C240.876 38.3759 240.44 36.411 240.44 34.1761C240.44 31.9223 240.876 29.9527 241.747 28.267C242.618 26.572 243.854 25.2557 245.455 24.3182C247.064 23.3712 248.973 22.8977 251.179 22.8977C253.385 22.8977 255.289 23.3712 256.889 24.3182C258.499 25.2557 259.74 26.572 260.611 28.267C261.482 29.9527 261.918 31.9223 261.918 34.1761C261.918 36.411 261.482 38.3759 260.611 40.071C259.74 41.7566 258.499 43.0729 256.889 44.0199C255.289 44.9574 253.385 45.4261 251.179 45.4261ZM251.207 40.7386C252.211 40.7386 253.049 40.4545 253.722 39.8864C254.394 39.3087 254.901 38.5227 255.241 37.5284C255.592 36.5341 255.767 35.4025 255.767 34.1335C255.767 32.8646 255.592 31.733 255.241 30.7386C254.901 29.7443 254.394 28.9583 253.722 28.3807C253.049 27.803 252.211 27.5142 251.207 27.5142C250.194 27.5142 249.342 27.803 248.651 28.3807C247.969 28.9583 247.453 29.7443 247.102 30.7386C246.761 31.733 246.591 32.8646 246.591 34.1335C246.591 35.4025 246.761 36.5341 247.102 37.5284C247.453 38.5227 247.969 39.3087 248.651 39.8864C249.342 40.4545 250.194 40.7386 251.207 40.7386ZM270.128 23.1818L274.134 30.8097L278.239 23.1818H284.446L278.125 34.0909L284.616 45H278.438L274.134 37.4574L269.901 45H263.651L270.128 34.0909L263.878 23.1818H270.128Z" fill="white"/>
<path d="M99.4091 69V57.3636H100.818V62.5455H107.023V57.3636H108.432V69H107.023V63.7955H100.818V69H99.4091ZM121.071 63.1818C121.071 64.4091 120.849 65.4697 120.406 66.3636C119.963 67.2576 119.355 67.947 118.582 68.4318C117.81 68.9167 116.927 69.1591 115.935 69.1591C114.942 69.1591 114.06 68.9167 113.287 68.4318C112.514 67.947 111.906 67.2576 111.463 66.3636C111.02 65.4697 110.798 64.4091 110.798 63.1818C110.798 61.9545 111.02 60.8939 111.463 60C111.906 59.1061 112.514 58.4167 113.287 57.9318C114.06 57.447 114.942 57.2045 115.935 57.2045C116.927 57.2045 117.81 57.447 118.582 57.9318C119.355 58.4167 119.963 59.1061 120.406 60C120.849 60.8939 121.071 61.9545 121.071 63.1818ZM119.707 63.1818C119.707 62.1742 119.539 61.3239 119.202 60.6307C118.868 59.9375 118.416 59.4129 117.844 59.0568C117.276 58.7008 116.639 58.5227 115.935 58.5227C115.23 58.5227 114.592 58.7008 114.02 59.0568C113.452 59.4129 112.999 59.9375 112.662 60.6307C112.329 61.3239 112.162 62.1742 112.162 63.1818C112.162 64.1894 112.329 65.0398 112.662 65.733C112.999 66.4261 113.452 66.9508 114.02 67.3068C114.592 67.6629 115.23 67.8409 115.935 67.8409C116.639 67.8409 117.276 67.6629 117.844 67.3068C118.416 66.9508 118.868 66.4261 119.202 65.733C119.539 65.0398 119.707 64.1894 119.707 63.1818ZM123.44 69V57.3636H124.849V67.75H130.259V69H123.44ZM132.44 57.3636H134.122L138.077 67.0227H138.213L142.168 57.3636H143.849V69H142.531V60.1591H142.418L138.781 69H137.509L133.872 60.1591H133.759V69H132.44V57.3636ZM146.675 69V57.3636H153.697V58.6136H148.084V62.5455H153.334V63.7955H148.084V67.75H153.788V69H146.675ZM162.601 60.2727C162.533 59.697 162.256 59.25 161.771 58.9318C161.286 58.6136 160.692 58.4545 159.987 58.4545C159.472 58.4545 159.021 58.5379 158.635 58.7045C158.252 58.8712 157.953 59.1004 157.737 59.392C157.525 59.6837 157.419 60.0152 157.419 60.3864C157.419 60.697 157.493 60.964 157.641 61.1875C157.792 61.4072 157.985 61.5909 158.22 61.7386C158.455 61.8826 158.701 62.0019 158.959 62.0966C159.216 62.1875 159.453 62.2614 159.669 62.3182L160.851 62.6364C161.154 62.7159 161.491 62.8258 161.862 62.9659C162.237 63.1061 162.595 63.2973 162.936 63.5398C163.281 63.7784 163.565 64.0852 163.788 64.4602C164.012 64.8352 164.124 65.2955 164.124 65.8409C164.124 66.4697 163.959 67.0379 163.629 67.5455C163.304 68.053 162.826 68.4564 162.197 68.7557C161.572 69.0549 160.813 69.2045 159.919 69.2045C159.086 69.2045 158.364 69.0701 157.754 68.8011C157.148 68.5322 156.671 68.1572 156.322 67.6761C155.978 67.1951 155.783 66.6364 155.737 66H157.192C157.23 66.4394 157.377 66.803 157.635 67.0909C157.896 67.375 158.226 67.5871 158.624 67.7273C159.025 67.8636 159.457 67.9318 159.919 67.9318C160.457 67.9318 160.94 67.8447 161.368 67.6705C161.796 67.4924 162.135 67.2462 162.385 66.9318C162.635 66.6136 162.76 66.2424 162.76 65.8182C162.76 65.4318 162.652 65.1174 162.436 64.875C162.22 64.6326 161.936 64.4356 161.584 64.2841C161.232 64.1326 160.851 64 160.442 63.8864L159.01 63.4773C158.101 63.2159 157.381 62.8428 156.851 62.358C156.321 61.8731 156.055 61.2386 156.055 60.4545C156.055 59.803 156.232 59.2348 156.584 58.75C156.94 58.2614 157.417 57.8826 158.016 57.6136C158.618 57.3409 159.29 57.2045 160.033 57.2045C160.783 57.2045 161.449 57.339 162.033 57.608C162.616 57.8731 163.078 58.2367 163.419 58.6989C163.764 59.161 163.946 59.6856 163.964 60.2727H162.601ZM165.804 58.6136V57.3636H174.531V58.6136H170.872V69H169.463V58.6136H165.804ZM176.706 69V57.3636H180.638C181.547 57.3636 182.293 57.5189 182.876 57.8295C183.46 58.1364 183.892 58.5587 184.172 59.0966C184.452 59.6345 184.592 60.2462 184.592 60.9318C184.592 61.6174 184.452 62.2254 184.172 62.7557C183.892 63.286 183.462 63.7027 182.882 64.0057C182.303 64.3049 181.562 64.4545 180.661 64.4545H177.479V63.1818H180.615C181.236 63.1818 181.736 63.0909 182.115 62.9091C182.498 62.7273 182.774 62.4697 182.945 62.1364C183.119 61.7992 183.206 61.3977 183.206 60.9318C183.206 60.4659 183.119 60.0587 182.945 59.7102C182.77 59.3617 182.492 59.0928 182.109 58.9034C181.727 58.7102 181.221 58.6136 180.592 58.6136H178.115V69H176.706ZM182.183 63.7727L185.047 69H183.411L180.592 63.7727H182.183ZM187.418 69H185.94L190.213 57.3636H191.668L195.94 69H194.463L190.986 59.2045H190.895L187.418 69ZM187.963 64.4545H193.918V65.7045H187.963V64.4545ZM206.98 57.3636V69H205.616L199.276 59.8636H199.162V69H197.753V57.3636H199.116L205.48 66.5227H205.594V57.3636H206.98ZM213.391 69H209.8V57.3636H213.55C214.679 57.3636 215.644 57.5966 216.447 58.0625C217.25 58.5246 217.866 59.1894 218.294 60.0568C218.722 60.9205 218.936 61.9545 218.936 63.1591C218.936 64.3712 218.72 65.4148 218.288 66.2898C217.857 67.161 217.228 67.8314 216.402 68.3011C215.576 68.767 214.572 69 213.391 69ZM211.209 67.75H213.3C214.262 67.75 215.059 67.5644 215.692 67.1932C216.324 66.822 216.796 66.2936 217.107 65.608C217.417 64.9223 217.572 64.1061 217.572 63.1591C217.572 62.2197 217.419 61.411 217.112 60.733C216.805 60.0511 216.347 59.5284 215.737 59.1648C215.127 58.7973 214.368 58.6136 213.459 58.6136H211.209V67.75ZM226.277 69H224.8L229.072 57.3636H230.527L234.8 69H233.322L229.845 59.2045H229.754L226.277 69ZM226.822 64.4545H232.777V65.7045H226.822V64.4545ZM242.976 60.2727C242.908 59.697 242.631 59.25 242.146 58.9318C241.661 58.6136 241.067 58.4545 240.362 58.4545C239.847 58.4545 239.396 58.5379 239.01 58.7045C238.627 58.8712 238.328 59.1004 238.112 59.392C237.9 59.6837 237.794 60.0152 237.794 60.3864C237.794 60.697 237.868 60.964 238.016 61.1875C238.167 61.4072 238.36 61.5909 238.595 61.7386C238.83 61.8826 239.076 62.0019 239.334 62.0966C239.591 62.1875 239.828 62.2614 240.044 62.3182L241.226 62.6364C241.529 62.7159 241.866 62.8258 242.237 62.9659C242.612 63.1061 242.97 63.2973 243.311 63.5398C243.656 63.7784 243.94 64.0852 244.163 64.4602C244.387 64.8352 244.499 65.2955 244.499 65.8409C244.499 66.4697 244.334 67.0379 244.004 67.5455C243.679 68.053 243.201 68.4564 242.572 68.7557C241.947 69.0549 241.188 69.2045 240.294 69.2045C239.461 69.2045 238.739 69.0701 238.129 68.8011C237.523 68.5322 237.046 68.1572 236.697 67.6761C236.353 67.1951 236.158 66.6364 236.112 66H237.567C237.605 66.4394 237.752 66.803 238.01 67.0909C238.271 67.375 238.601 67.5871 238.999 67.7273C239.4 67.8636 239.832 67.9318 240.294 67.9318C240.832 67.9318 241.315 67.8447 241.743 67.6705C242.171 67.4924 242.51 67.2462 242.76 66.9318C243.01 66.6136 243.135 66.2424 243.135 65.8182C243.135 65.4318 243.027 65.1174 242.811 64.875C242.595 64.6326 242.311 64.4356 241.959 64.2841C241.607 64.1326 241.226 64 240.817 63.8864L239.385 63.4773C238.476 63.2159 237.756 62.8428 237.226 62.358C236.696 61.8731 236.43 61.2386 236.43 60.4545C236.43 59.803 236.607 59.2348 236.959 58.75C237.315 58.2614 237.792 57.8826 238.391 57.6136C238.993 57.3409 239.665 57.2045 240.408 57.2045C241.158 57.2045 241.824 57.339 242.408 57.608C242.991 57.8731 243.453 58.2367 243.794 58.6989C244.139 59.161 244.321 59.6856 244.339 60.2727H242.976Z" fill="white"/>
<path d="M71.75 54.6667V27.3333C71.7488 26.135 71.4324 24.9581 70.8328 23.9206C70.2331 22.8832 69.3711 22.0216 68.3333 21.4225L44.4167 7.75582C43.3779 7.15607 42.1995 6.84033 41 6.84033C39.8005 6.84033 38.6221 7.15607 37.5833 7.75582L13.6667 21.4225C12.6289 22.0216 11.7669 22.8832 11.1672 23.9206C10.5676 24.9581 10.2512 26.135 10.25 27.3333V54.6667C10.2512 55.865 10.5676 57.0419 11.1672 58.0793C11.7669 59.1168 12.6289 59.9783 13.6667 60.5775L37.5833 74.2442C38.6221 74.8439 39.8005 75.1597 41 75.1597C42.1995 75.1597 43.3779 74.8439 44.4167 74.2442L68.3333 60.5775C69.3711 59.9783 70.2331 59.1168 70.8328 58.0793C71.4324 57.0419 71.7488 55.865 71.75 54.6667Z" stroke="white" stroke-width="3" stroke-linecap="round" stroke-linejoin="round"/>
<path d="M25.625 14.3842L41 23.2675L56.375 14.3842" stroke="white" stroke-width="3" stroke-linecap="round" stroke-linejoin="round"/>
<path d="M25.625 67.6158V49.8833L10.25 41" stroke="white" stroke-width="3" stroke-linecap="round" stroke-linejoin="round"/>
<path d="M71.75 41L56.375 49.8833V67.6158" stroke="white" stroke-width="3" stroke-linecap="round" stroke-linejoin="round"/>
<path d="M11.1725 23.78L41 41.0342L70.8275 23.78" stroke="white" stroke-width="3" stroke-linecap="round" stroke-linejoin="round"/>
<path d="M41 75.44V41" stroke="white" stroke-width="3" stroke-linecap="round" stroke-linejoin="round"/>
</svg>
